#!OML:ASF F:\VICON\USERDATA\INSTALL\rory3\rory3.ASF
:FULLY-SPECIFIED
:DEGREES
3193
root 0.230796 16.88 0.532262 -10.789 3.38312 -8.24401
lowerback -3.64752 0.326597 -1.48831
upperback 0.43921 0.508825 -0.264131
thorax 2.48547 0.234905 0.592488
lowerneck -5.83819 -11.0612 -16.5214
upperneck 35.2243 -19.9001 16.4544
head 17.6335 -9.09514 6.63194
rclavicle 1.5704e-014 0
rhumerus 87.5927 -18.9473 -56.6432
rradius 57.2426
rwrist 36.4325
rhand 49.3904 16.8577
rfingers 7.12502
rthumb 69.5476 19.7315
lclavicle 1.5704e-014 0
lhumerus -23.8352 -10.8261 89.7059
lradius -3.13133
lwrist -1.43595
lhand -1.28528 25.4396
lfingers 7.12502
lthumb 24.3587 53.9115
rfemur 15.2809 3.3699 28.5729
rtibia 12.2509
rfoot -17.8167 -9.30027
rtoes -22.1166
lfemur 3.76193 -10.9491 -11.8463
ltibia 32.9611
lfoot -25.0329 1.71153
ltoes -18.9505
3194
root 0.229969 16.8826 0.527695 -10.8235 3.44219 -8.33262
lowerback -3.73167 0.370354 -1.37355
upperback 0.539166 0.564465 -0.261498
thorax 2.63545 0.262768 0.535169
lowerneck -5.84747 -11.1097 -16.5124
upperneck 35.1742 -19.952 16.4315
head 17.6156 -9.11553 6.60176
rclavicle -1.5704e-014 -1.74931e-014
rhumerus 87.4711 -19.0394 -56.5676
rradius 57.7199
rwrist 36.4334
rhand 49.5828 16.9453
rfingers 7.12502
rthumb 69.6762 20.2043
lclavicle -1.5704e-014 -1.74931e-014
lhumerus -23.8888 -10.8748 89.7834
lradius -2.79295
lwrist -0.959829
lhand -1.59104 25.2823
lfingers 7.12502
lthumb 24.0656 53.7933
rfemur 15.2679 3.31259 28.6809
rtibia 12.3018
rfoot -17.91 -9.30173
rtoes -21.9037
lfemur 3.74368 -10.9763 -11.7387
ltibia 32.9846
lfoot -25.0723 1.47343
ltoes -18.0321
3195
root 0.230579 16.8806 0.524343 -10.861 3.49392 -8.35447
lowerback -3.74479 0.462527 -1.23906
upperback 0.582038 0.683674 -0.33512
thorax 2.68707 0.324262 0.391564
lowerneck -5.82 -11.1543 -16.46
upperneck 35.1652 -20.0422 16.4595
head 17.6265 -9.14424 6.58636
rclavicle -7.15625e-015 -9.54166e-015
rhumerus 87.2003 -19.2074 -56.4194
rradius 58.1646
rwrist 36.3729
rhand 49.7762 17.218
rfingers 7.12502
rthumb 69.8044 20.869
lclavicle -7.15625e-015 -9.54166e-015
lhumerus -24.0915 -11.0749 89.8492
lradius -2.21526
lwrist -0.63309
lhand -1.58596 25.6452
lfingers 7.12502
lthumb 24.0705 54.1555
rfemur 15.2185 3.27786 28.7102
rtibia 12.3527
rfoot -17.8691 -9.44165
rtoes -22.0521
lfemur 3.72563 -10.9827 -11.7141
ltibia 33.0378
lfoot -25.1144 1.57073
ltoes -18.5423
3196
root 0.231052 16.8748 0.52022 -10.9062 3.54696 -8.2867
lowerback -3.72719 0.498204 -1.2504
upperback 0.600668 0.732925 -0.381937
thorax 2.69606 0.348868 0.352692
lowerneck -5.82631 -11.1235 -16.4562
upperneck 35.2364 -19.994 16.4395
head 17.6514 -9.12424 6.59328
rclavicle 9.93923e-016 -2.54444e-014
rhumerus 86.995 -19.1998 -56.2581
rradius 58.5817
rwrist 36.2665
rhand 50.0245 17.2783
rfingers 7.12502
rthumb 69.9676 21.4402
lclavicle 9.93923e-016 -2.54444e-014
lhumerus -24.4407 -11.0923 89.9051
lradius -1.43825
lwrist -0.287151
lhand -1.48759 26.3585
lfingers 7.12502
lthumb 24.1648 54.8563
rfemur 15.2481 3.26494 28.6173
rtibia 12.3736
rfoot -17.7604 -9.51114
rtoes -22.4347
lfemur 3.73034 -10.9954 -11.8084
ltibia 33.1047
lfoot -25.0994 1.69357
ltoes -19.1055
3197
root 0.230271 16.8739 0.513034 -10.9162 3.56893 -8.24727
lowerback -3.72721 0.505125 -1.28718
upperback 0.653321 0.744147 -0.369566
thorax 2.7495 0.353273 0.386988
lowerneck -5.92888 -11.102 -16.5122
upperneck 35.2934 -19.9354 16.4236
head 17.7003 -9.10128 6.60851
rclavicle -7.15625e-015 -9.54166e-015
rhumerus 86.9357 -19.099 -56.1858
rradius 58.9475
rwrist 36.2614
rhand 50.2526 17.2993
rfingers 7.12502
rthumb 70.1161 21.9383
lclavicle -7.15625e-015 -9.54166e-015
lhumerus -24.6601 -10.9806 89.9523
lradius -0.710209
lwrist -0.0510245
lhand -1.38371 26.9001
lfingers 7.12502
lthumb 24.2644 55.3846
rfemur 15.2668 3.27919 28.5685
rtibia 12.3757
rfoot -17.7525 -9.42164
rtoes -22.3408
lfemur 3.68679 -10.959 -11.839
ltibia 33.1741
lfoot -24.9875 1.59213
ltoes -18.7785
3198
root 0.23039 16.8737 0.507099 -10.9521 3.60541 -8.20448
lowerback -3.68783 0.48749 -1.31552
upperback 0.703365 0.722063 -0.376533
thorax 2.77899 0.341508 0.394272
lowerneck -6.00671 -11.0821 -16.5069
upperneck 35.3287 -19.8854 16.3915
head 17.7195 -9.07723 6.6024
rclavicle -2.44505e-014 4.77083e-015
rhumerus 86.9052 -18.9321 -56.2059
rradius 59.2556
rwrist 36.1088
rhand 50.3134 17.3776
rfingers 7.12502
rthumb 70.1555 22.145
lclavicle -2.44505e-014 4.77083e-015
lhumerus -24.8619 -10.8333 89.928
lradius -0.0511445
lwrist 0.0704218
lhand -1.35293 27.0759
lfingers 7.12502
lthumb 24.2939 55.5565
rfemur 15.289 3.27548 28.5182
rtibia 12.3749
rfoot -17.713 -9.42744
rtoes -22.5706
lfemur 3.6625 -10.9392 -11.8815
ltibia 33.2446
lfoot -24.9784 1.46469
ltoes -18.3223
